<?xml version="1.0" encoding="UTF-8" standalone="no"?>
<!-- Created with Inkscape (http://www.inkscape.org/) -->

<svg
   width="146mm"
   height="146mm"
   viewBox="0 0 146 146"
   version="1.1"
   id="svg1"
   xml:space="preserve"
   inkscape:version="1.4.3 (0d15f75, 2025-12-25)"
   sodipodi:docname="icon.svg"
   inkscape:export-filename="claude-artifact-16.png"
   inkscape:export-xdpi="2.7835615"
   inkscape:export-ydpi="2.7835615"
   xmlns:inkscape="http://www.inkscape.org/namespaces/inkscape"
   xmlns:sodipodi="http://sodipodi.sourceforge.net/DTD/sodipodi-0.dtd"
   xmlns="http://www.w3.org/2000/svg"
   xmlns:svg="http://www.w3.org/2000/svg"><sodipodi:namedview
     id="namedview1"
     pagecolor="#ffffff"
     bordercolor="#000000"
     borderopacity="0.25"
     inkscape:showpageshadow="2"
     inkscape:pageopacity="0.0"
     inkscape:pagecheckerboard="0"
     inkscape:deskcolor="#d1d1d1"
     inkscape:document-units="mm"
     inkscape:zoom="0.76167929"
     inkscape:cx="99.779528"
     inkscape:cy="208.09283"
     inkscape:window-width="1920"
     inkscape:window-height="1057"
     inkscape:window-x="-3"
     inkscape:window-y="-8"
     inkscape:window-maximized="1"
     inkscape:current-layer="layer1" /><defs
     id="defs1" /><g
     inkscape:label="Layer 1"
     inkscape:groupmode="layer"
     id="layer1"
     transform="translate(-34.237267,-64.9754)"><path
       style="fill:#ffffff;stroke-width:6.56444;stroke-linecap:round;stroke-linejoin:round;stroke-miterlimit:2.3;stroke:#ffffff;stroke-opacity:1"
       d="m 511.7813,379.75301 -0.41122,-79.10154 -3.68416,-7.50242 c -4.10854,-8.36661 -12.69586,-16.68943 -22.20175,-21.51788 l -6.19256,-3.14547 H 346.28219 213.27276 L 184.09681,217.82883 154.92085,167.17196 V 103.14807 39.124179 l 3.74613,-5.171394 c 7.65075,-10.561542 -6.745,-9.664347 155.06719,-9.664347 H 458.1981 l 0.0228,16.739328 c 0.0232,17.049471 2.13553,31.15091 5.6982,38.040369 3.23971,6.264897 10.08298,12.004451 17.83023,14.954475 5.44177,2.072137 12.68674,3.136996 28.4428,4.180491 l 21.14113,1.40014 0.84495,18.468579 c 0.46471,10.15772 0.8471,90.63066 0.84974,178.82874 0.004,145.01919 -0.19386,160.4364 -2.07191,161.15707 -1.14219,0.43831 -5.83124,0.79691 -10.42011,0.79691 h -8.34339 z M 470.37567,245.17953 c 5.54842,-6.13091 5.32788,-14.34847 -0.46833,-17.45049 -2.07453,-1.11028 -31.69935,-1.72325 -108.04791,-2.23566 -114.00563,-0.76514 -146.54571,-0.0541 -146.54571,3.20235 0,1.0703 2.11865,5.7345 4.7081,10.36489 l 4.70811,8.41887 h 121.78216 c 114.3641,0 121.90893,-0.1401 123.86358,-2.29996 z m 0.91707,-54.97228 c 4.65099,-5.29718 4.62608,-9.48446 -0.0849,-14.28019 -2.54414,-2.58989 -4.31444,-2.62577 -129.56496,-2.62577 -99.83487,0 -127.60509,0.35429 -129.88308,1.65706 -1.74386,0.99731 -3.24673,3.51862 -3.77462,6.33254 -0.77016,4.10526 -0.34534,5.22416 3.48326,9.17427 l 4.3604,4.49879 h 125.64374 125.64376 z m 0,-53.82844 c 3.27918,-3.73476 3.99499,-5.49766 3.33184,-8.20555 -1.35942,-5.55103 -3.74491,-6.93664 -13.98368,-8.12239 -11.80352,-1.36697 -225.05797,-1.45835 -238.60426,-0.10225 -7.84692,0.78554 -10.15496,1.54631 -12.14422,4.00294 -3.37751,4.17105 -3.07646,8.36782 0.9429,13.14456 l 3.39892,4.0394 h 126.44103 126.44104 z"
       id="path3"
       inkscape:label="doc-white"
       transform="matrix(0.26458333,0,0,0.26458333,34.237267,64.9754)" /><path
       style="display:inline;fill:#536dfe;fill-opacity:1"
       d="m 69.423216,109.22543 0.10356,-17.531303 c 0.12444,-21.06792 0.36072,-21.96639 6.58002,-25.0206 l 1.9902,-0.97736 38.616154,-0.0958 38.61616,-0.0958 12.80881,12.8088 12.8088,12.80881 -0.0958,46.561263 -0.0958,46.56127 -1.1792,2.39509 c -1.75236,3.55929 -3.16708,4.46887 -6.95066,4.46887 h -2.90871 l -0.13788,5.55625 c -0.18909,7.62065 -1.72185,10.65541 -6.58891,13.04555 l -1.9902,0.97736 -58.38472,0.067 c -45.385954,0.0521 -58.742046,-0.0299 -59.989663,-0.36847 h 1.9e-5 c -3.271094,-0.88755 -6.408506,-3.6841 -7.600518,-6.77477 -1.054904,-2.73517 -1.047867,-84.3777 0.0075,-87.11439 2.410565,-6.25084 4.709131,-7.03169 21.088841,-7.16418 l 13.301997,-0.10759 m 5.67518,0.16283 7.67291,13.32302 7.67292,13.32302 35.277784,0.10871 35.27777,0.10871 1.9902,0.97736 c 2.32202,1.14031 4.63445,3.50361 5.71416,5.83984 0.75018,1.62322 0.76392,1.9824 0.86376,22.56561 l 0.10144,20.91613 2.89717,-0.10224 2.89716,-0.10225 0.1111,-20.81389 c 0.0611,-11.44764 0.002,-32.90266 -0.13051,-47.67781 l -0.24161,-26.863933 -5.69032,-0.13521 c -10.7533,-0.25551 -13.69519,-3.2037 -13.92866,-13.95847 l -0.12445,-5.73264 H 117.27125 79.083286 l -1.1903,0.80215 c -0.65467,0.44118 -1.55127,1.33778 -1.99245,1.99245 l -0.80214,1.1903 v 17.11957 17.119573 m 17.38605,18.495 c -0.80083,-1.4012 -1.37968,-2.6712 -1.28634,-2.82222 0.28154,-0.45556 65.919184,-0.34072 66.923954,0.11709 1.7952,0.81795 2.07624,2.75713 0.6118,4.22156 l -1.03119,1.0312 H 125.82158 93.940486 Z m -2.24375,-12.59468 c -1.12217,-1.12217 -1.2375,-1.65781 -0.63951,-2.97024 0.75862,-1.665 0.29151,-1.643 34.886094,-1.643 34.59458,0 34.12748,-0.022 34.8861,1.643 0.59799,1.31243 0.48266,1.84807 -0.63952,2.97024 l -1.03119,1.0312 H 124.48728 91.271896 Z m 0,-14.11111 c -1.12217,-1.12217 -1.2375,-1.657813 -0.63951,-2.970253 0.75862,-1.66499 0.29151,-1.643 34.886094,-1.643 34.59458,0 34.12748,-0.022 34.8861,1.643 0.59799,1.31244 0.48266,1.848083 -0.63952,2.970253 l -1.03119,1.0312 H 124.48728 91.271896 Z"
       id="path1"
       sodipodi:nodetypes="ccscccccccsscsscsssscsccccccssscccsccsscccsscccscsscccsssssscccsssssscccs"
       inkscape:label="icon" /><path
       fill="#536dfe"
       d="m 143.73097,149.65085 c -0.82411,-0.40406 -1.17937,0.36666 -1.66283,0.75759 -0.16555,0.12631 -0.30473,0.29063 -0.44453,0.44147 -1.20531,1.28807 -2.61344,2.13329 -4.45476,2.03268 -2.68965,-0.15084 -4.98677,0.69431 -7.01786,2.75139 -0.43165,-2.53722 -1.8656,-4.05242 -4.04758,-5.02418 -1.14203,-0.50461 -2.29712,-1.01064 -3.09691,-2.10895 -0.55795,-0.78194 -0.71055,-1.65309 -0.98953,-2.51124 -0.17843,-0.51748 -0.35501,-1.04798 -0.95227,-1.13559 -0.64729,-0.10055 -0.9004,0.44146 -1.1551,0.89709 -1.01554,1.8559 -1.40813,3.90158 -1.37079,5.97154 0.0889,4.65752 2.05543,8.36928 5.96345,11.00707 0.44453,0.30351 0.55796,0.60517 0.41877,1.04798 -0.2661,0.90848 -0.58371,1.79263 -0.86305,2.70106 -0.17842,0.58064 -0.44452,0.70731 -1.06582,0.45433 -2.14464,-0.89549 -3.99724,-2.22085 -5.63413,-3.82524 -2.77894,-2.68813 -5.29182,-5.65524 -8.426,-7.9783 -0.73657,-0.54324 -1.47142,-1.04798 -2.23392,-1.52818 -3.19745,-3.105 0.41878,-5.65523 1.25565,-5.95861 0.87605,-0.31638 0.30473,-1.40163 -2.52582,-1.38864 -2.82927,0.0123 -5.41838,0.95877 -8.71811,2.22091 -0.48193,0.19008 -0.98954,0.32742 -1.51028,0.44146 -2.99469,-0.56776 -6.1046,-0.69437 -9.35239,-0.32741 -6.11588,0.68132 -11.00217,3.57221 -14.59388,8.50877 -4.3152,5.93261 -5.32909,12.67309 -4.08645,19.70562 1.30753,7.41052 5.08906,13.5443 10.89996,18.34132 6.02832,4.97384 12.96838,7.41051 20.8883,6.9433 4.81001,-0.27713 10.1651,-0.92148 16.20477,-6.03322 1.52329,0.75759 3.12124,1.06097 5.77362,1.28808 2.04243,0.19007 4.01024,-0.10055 5.53358,-0.41693 2.38634,-0.50462 2.22086,-2.71406 1.3578,-3.118 -5.98773,-2.09761 -6.84594,-3.00445 -6.84594,-3.00445 3.55277,-4.20324 8.90787,-8.57204 11.00222,-22.72304 0.16555,-1.1226 0.0246,-1.82992 0,-2.74001 -0.0123,-0.55488 0.11344,-0.77058 0.74945,-0.8338 1.75044,-0.20295 3.45222,-0.68138 5.01284,-1.53953 4.53097,-2.47396 6.35764,-6.53937 6.78916,-11.41101 0.0613,-0.743 -0.0123,-1.5136 -0.80143,-1.90453 z m -39.47781,43.85465 c -6.77617,-5.32751 -10.06289,-7.08121 -11.42069,-7.00659 -1.26865,0.0761 -1.03989,1.52819 -0.76085,2.47395 0.29186,0.93443 0.67323,1.57847 1.20531,2.39775 0.36849,0.54324 0.62135,1.35135 -0.3685,1.95646 -2.18191,1.3513 -5.97638,-0.45433 -6.15487,-0.54324 -4.41577,-2.60051 -8.10803,-6.03482 -10.71019,-10.72968 -2.51289,-4.51964 -3.9713,-9.36693 -4.213,-14.54195 -0.0631,-1.24914 0.30473,-1.69201 1.54762,-1.91912 1.6369,-0.3035 3.32408,-0.36666 4.96251,-0.12631 6.91571,1.01064 12.80455,4.1027 17.74111,9.00027 2.81786,2.79033 4.9495,6.12244 7.14442,9.37999 2.33446,3.45865 4.84736,6.75348 8.04481,9.45454 1.1291,0.94736 2.03108,1.66602 2.89248,2.1965 -2.60044,0.29186 -6.94164,0.35501 -9.9104,-1.99214 z m 3.24939,-20.89315 c 0,-0.55489 0.44453,-0.99769 1.00261,-0.99769 0.1263,0 0.24158,0.0246 0.34213,0.0631 0.1398,0.049 0.2661,0.12631 0.36849,0.24035 0.17843,0.17659 0.27898,0.42981 0.27898,0.69432 0,0.55489 -0.44452,0.9977 -1.0026,0.9977 -0.55796,0 -0.98954,-0.44146 -0.98954,-0.9977 z m 10.08724,5.17668 c -0.64729,0.26426 -1.29452,0.49173 -1.91588,0.51749 -0.96526,0.049 -2.01808,-0.34091 -2.58916,-0.82088 -0.88898,-0.74465 -1.52328,-1.16153 -1.78932,-2.46101 -0.11343,-0.55489 -0.049,-1.41457 0.049,-1.90613 0.2287,-1.06097 -0.0245,-1.74229 -0.77384,-2.3604 -0.61007,-0.50461 -1.38379,-0.64404 -2.23385,-0.64404 -0.31821,0 -0.60823,-0.1398 -0.82412,-0.25323 -0.355,-0.17658 -0.64729,-0.61811 -0.3685,-1.16153 0.0889,-0.17658 0.52056,-0.60516 0.62136,-0.68138 1.15504,-0.65698 2.48689,-0.44146 3.7182,0.049 1.14209,0.46721 2.00515,1.32542 3.24939,2.53722 1.26864,1.46492 1.49735,1.86885 2.22092,2.96717 0.57082,0.85815 1.09175,1.7423 1.44706,2.75134 0.21583,0.63104 -0.0632,1.14853 -0.81277,1.46491 z"
       id="path1-8"
       style="fill:#ffffff;stroke-width:1.62226"
       inkscape:label="deepseek" /></g></svg>
